<?xml version="1.0" encoding="utf-8"?>
<!-- Generator: Adobe Illustrator 26.1.0, SVG Export Plug-In . SVG Version: 6.00 Build 0)  -->
<svg version="1.1" id="Capa_1" xmlns="http://www.w3.org/2000/svg" xmlns:xlink="http://www.w3.org/1999/xlink" x="0px" y="0px"
	 viewBox="0 0 100 100" style="enable-background:new 0 0 100 100;" xml:space="preserve">
<path d="M92.68,47c-0.06,7.29-5.99,13.17-13.28,13.17H27.49c-11.19,0-20.17-9.71-20.17-20c0.09-11.13,9.16-20.11,20.29-20.09
	c1.58,0.01,3.15,0.22,4.68,0.61c1.53-5.83,6.77-9.92,12.79-10c7.23-0.02,13.14,5.77,13.28,13v0.12c1.02-0.15,2.05-0.23,3.08-0.25
	c6.93,0.01,13.21,4.11,16,10.46c0.66-0.1,1.33-0.14,2-0.12C86.68,33.95,92.56,39.76,92.68,47z M38.93,83.91
	c1.06,1.53,0.67,3.62-0.85,4.67c0,0-0.01,0-0.01,0.01c-0.56,0.47-1.27,0.73-2,0.74c-1.08-0.06-2.07-0.6-2.7-1.48l-8.74-12.3
	c-1.07-1.47-0.8-3.53,0.62-4.67c1.4-1.14,3.46-0.93,4.6,0.47c0.07,0.08,0.13,0.17,0.19,0.26L38.93,83.91z M60.58,83.91
	c1.1,1.39,0.87,3.42-0.52,4.52c-0.07,0.06-0.14,0.11-0.22,0.16c-0.57,0.45-1.27,0.71-2,0.74c-1.11-0.08-2.14-0.61-2.84-1.48
	l-8.73-12.3c-1.07-1.43-0.78-3.45,0.65-4.52c0.07-0.05,0.14-0.1,0.21-0.15c1.34-1.11,3.34-0.93,4.45,0.41
	c0.08,0.1,0.16,0.21,0.23,0.32L60.58,83.91z M82.35,83.91c1.1,1.39,0.87,3.42-0.52,4.52c-0.07,0.06-0.14,0.11-0.22,0.16
	c-0.59,0.41-1.28,0.67-2,0.74c-1.08-0.06-2.07-0.6-2.7-1.48l-8.86-12.3c-1.09-1.49-0.76-3.58,0.73-4.67c0,0,0,0,0.01,0
	c1.42-1.14,3.5-0.91,4.64,0.51c0.06,0.07,0.11,0.14,0.16,0.22L82.35,83.91z"/>
</svg>
